#!OML:ASF H:\ManfredETheater\Project 1\Capture day 1\Session 1\subject.ASF
:FULLY-SPECIFIED
:DEGREES
227
root 0.831323 17.7967 -15.6702 -169.951 -5.8108 -182.174
lowerback 3.32845 -0.587956 -3.98201
upperback -3.93219 -1.04785 1.59769
thorax -5.86553 -0.349652 3.99544
lowerneck -15.6667 -1.82101 -2.52867
upperneck 10.1471 -2.50898 4.19679
head 5.70969 -1.01088 1.50242
rclavicle 7.92654e-015 2.78299e-015
rhumerus -38.1865 -8.75774 -81.3772
rradius 30.3694
rwrist 7.68761
rhand -18.6591 -8.19544
rfingers 7.12502
rthumb 7.63421 -38.0376
lclavicle 7.92654e-015 2.78299e-015
lhumerus -36.0605 2.75688 88.571
lradius 39.4793
lwrist -5.80187
lhand -15.7223 8.1362
lfingers 7.12502
lthumb 10.468 37.8556
rfemur -17.4804 0.907639 21.3404
rtibia 33.8511
rfoot -20.183 -15.2403
rtoes -13.024
lfemur -20.6839 -4.72453 -23.8462
ltibia 38.6515
lfoot -23.3941 -5.78863
ltoes 11.4149
228
root 0.836235 17.7923 -15.6914 -169.863 -5.70007 -182.146
lowerback 3.3696 -0.602238 -3.92012
upperback -3.93011 -1.06317 1.62588
thorax -5.88563 -0.358752 3.99217
lowerneck -15.6737 -1.80343 -2.50297
upperneck 10.1335 -2.48037 4.13305
head 5.70427 -1.00041 1.48074
rclavicle -1.30204e-014 1.98785e-015
rhumerus -38.1573 -8.69887 -81.3333
rradius 30.4893
rwrist 7.59424
rhand -18.7014 -8.22415
rfingers 7.12502
rthumb 7.5934 -38.0678
lclavicle -1.30204e-014 1.98785e-015
lhumerus -36.0061 2.4498 88.8037
lradius 39.9594
lwrist -5.56508
lhand -15.8404 8.11364
lfingers 7.12502
lthumb 10.3541 37.8387
rfemur -17.503 0.889692 21.3774
rtibia 33.8405
rfoot -20.2751 -15.1313
rtoes -13.2104
lfemur -20.7033 -4.78242 -23.8049
ltibia 38.6693
lfoot -23.5221 -5.58953
ltoes 11.301
229
root 0.84145 17.788 -15.713 -169.774 -5.57189 -182.126
lowerback 3.4069 -0.610443 -3.87458
upperback -3.92482 -1.07107 1.65195
thorax -5.90075 -0.363636 3.99519
lowerneck -15.6792 -1.78576 -2.47986
upperneck 10.1123 -2.45185 4.07565
head 5.69638 -0.989729 1.4615
rclavicle -5.39203e-015 1.74931e-014
rhumerus -38.1215 -8.63887 -81.2949
rradius 30.6202
rwrist 7.49616
rhand -18.7471 -8.26468
rfingers 7.12502
rthumb 7.54929 -38.11
lclavicle -5.39203e-015 1.74931e-014
lhumerus -35.9506 2.14324 89.0351
lradius 40.4212
lwrist -5.33815
lhand -15.9614 8.06248
lfingers 7.12502
lthumb 10.2374 37.7934
rfemur -17.5259 0.883951 21.4051
rtibia 33.8284
rfoot -20.3702 -15.023
rtoes -13.3783
lfemur -20.7228 -4.83047 -23.7731
ltibia 38.689
lfoot -23.6432 -5.38971
ltoes 11.1833
230
root 0.847126 17.784 -15.7351 -169.683 -5.42719 -182.119
lowerback 3.44095 -0.612976 -3.85103
upperback -3.918 -1.07267 1.67396
thorax -5.91285 -0.364587 4.00576
lowerneck -15.6794 -1.77099 -2.46355
upperneck 10.0828 -2.42709 4.0281
head 5.68536 -0.980564 1.44613
rclavicle 1.20265e-014 -9.54166e-015
rhumerus -38.0832 -8.57788 -81.2634
rradius 30.7648
rwrist 7.39857
rhand -18.7994 -8.31601
rfingers 7.12502
rthumb 7.49873 -38.1631
lclavicle 1.20265e-014 -9.54166e-015
lhumerus -35.8967 1.83917 89.2624
lradius 40.8597
lwrist -5.12428
lhand -16.0744 7.98479
lfingers 7.12502
lthumb 10.1284 37.721
rfemur -17.549 0.888693 21.4185
rtibia 33.8159
rfoot -20.4706 -14.9137
rtoes -13.5486
lfemur -20.7418 -4.86881 -23.7553
ltibia 38.709
lfoot -23.7563 -5.18978
ltoes 11.056
231
root 0.853303 17.7801 -15.7577 -169.586 -5.26932 -182.128
lowerback 3.47123 -0.611146 -3.85168
upperback -3.91208 -1.07008 1.69039
thorax -5.92399 -0.362533 4.02376
lowerneck -15.6778 -1.75707 -2.44462
upperneck 10.0548 -2.40462 3.9831
head 5.67462 -0.972258 1.43094
rclavicle 1.67476e-014 -1.31198e-014
rhumerus -38.0452 -8.51337 -81.2414
rradius 30.924
rwrist 7.29783
rhand -18.8656 -8.36939
rfingers 7.12502
rthumb 7.43487 -38.2187
lclavicle 1.67476e-014 -1.31198e-014
lhumerus -35.8447 1.54386 89.482
lradius 41.2708
lwrist -4.92862
lhand -16.1757 7.87928
lfingers 7.12502
lthumb 10.0307 37.6202
rfemur -17.5762 0.899361 21.4142
rtibia 33.8046
rfoot -20.5783 -14.8007
rtoes -13.733
lfemur -20.7636 -4.90103 -23.7544
ltibia 38.7274
lfoot -23.8594 -4.98909
ltoes 10.9241
232
root 0.859808 17.7765 -15.7807 -169.482 -5.10108 -182.151
lowerback 3.4982 -0.605529 -3.86991
upperback -3.90579 -1.06363 1.7004
thorax -5.93316 -0.357966 4.04455
lowerneck -15.6851 -1.74453 -2.42202
upperneck 10.0291 -2.38454 3.9364
head 5.66608 -0.964992 1.41435
rclavicle -9.79014e-015 -2.38542e-015
rhumerus -38.0022 -8.4448 -81.2317
rradius 31.097
rwrist 7.19459
rhand -18.9336 -8.43802
rfingers 7.12502
rthumb 7.3692 -38.2897
lclavicle -9.79014e-015 -2.38542e-015
lhumerus -35.7884 1.25675 89.6933
lradius 41.6499
lwrist -4.74883
lhand -16.2532 7.7524
lfingers 7.12502
lthumb 9.95584 37.497
rfemur -17.6089 0.903163 21.3932
rtibia 33.7958
rfoot -20.6923 -14.6733
rtoes -13.9509
lfemur -20.7887 -4.92905 -23.7693
ltibia 38.7438
lfoot -23.9534 -4.78558
ltoes 10.7943
233
root 0.866479 17.7731 -15.8046 -169.372 -4.92686 -182.189
lowerback 3.51429 -0.599207 -3.90394
upperback -3.89728 -1.05707 1.70308
thorax -5.93368 -0.353037 4.06627
lowerneck -15.6998 -1.7316 -2.39366
upperneck 10.0073 -2.36568 3.89226
head 5.66005 -0.957842 1.39749
rclavicle -1.68967e-015 2.82274e-014
rhumerus -37.9546 -8.37109 -81.2369
rradius 31.283
rwrist 7.09494
rhand -19.0119 -8.51318
rfingers 7.12502
rthumb 7.29369 -38.3675
lclavicle -1.68967e-015 2.82274e-014
lhumerus -35.7275 0.982745 89.8925
lradius 42.0001
lwrist -4.58698
lhand -16.3031 7.60721
lfingers 7.12502
lthumb 9.90774 37.3541
rfemur -17.6476 0.897408 21.3532
rtibia 33.7906
rfoot -20.8117 -14.5318
rtoes -14.2084
lfemur -20.8171 -4.95729 -23.8022
ltibia 38.7584
lfoot -24.0407 -4.57644
ltoes 10.6675
234
root 0.873048 17.7697 -15.8291 -169.252 -4.75278 -182.238
lowerback 3.52187 -0.592361 -3.94086
upperback -3.89364 -1.0504 1.69874
thorax -5.93457 -0.348115 4.08213
lowerneck -15.7092 -1.72017 -2.36197
upperneck 9.98609 -2.34937 3.84566
head 5.65336 -0.952048 1.3791
rclavicle -4.17448e-015 5.96354e-015
rhumerus -37.9133 -8.29535 -81.2511
rradius 31.4798
rwrist 7.00375
rhand -19.0941 -8.58897
rfingers 7.12502
rthumb 7.21431 -38.446
lclavicle -4.17448e-015 5.96354e-015
lhumerus -35.676 0.71676 90.0836
lradius 42.3314
lwrist -4.43696
lhand -16.321 7.47125
lfingers 7.12502
lthumb 9.89045 37.2189
rfemur -17.6961 0.868481 21.2992
rtibia 33.7891
rfoot -20.9342 -14.3692
rtoes -14.5147
lfemur -20.853 -4.98322 -23.8486
ltibia 38.7726
lfoot -24.1237 -4.36639
ltoes 10.5512
235
root 0.879519 17.7663 -15.8542 -169.126 -4.58091 -182.285
lowerback 3.52785 -0.587286 -3.9689
upperback -3.89065 -1.04564 1.69208
thorax -5.93516 -0.344613 4.09068
lowerneck -15.7316 -1.7084 -2.32607
upperneck 9.97137 -2.33318 3.7964
head 5.65078 -0.94617 1.35911
rclavicle 3.97569e-016 1.74931e-014
rhumerus -37.8647 -8.21386 -81.2789
rradius 31.6827
rwrist 6.91865
rhand -19.1815 -8.65937
rfingers 7.12502
rthumb 7.12994 -38.5193
lclavicle 3.97569e-016 1.74931e-014
lhumerus -35.6262 0.463572 90.2646
lradius 42.6429
lwrist -4.29455
lhand -16.3131 7.33874
lfingers 7.12502
lthumb 9.89808 37.0861
rfemur -17.7524 0.825463 21.2457
rtibia 33.7912
rfoot -21.0565 -14.1917
rtoes -14.8504
lfemur -20.895 -5.00587 -23.8939
ltibia 38.7884
lfoot -24.2057 -4.15479
ltoes 10.4365
236
root 0.885663 17.7629 -15.8798 -168.994 -4.41603 -182.327
lowerback 3.52801 -0.585188 -3.98198
upperback -3.88793 -1.04387 1.68452
thorax -5.93253 -0.343395 4.08992
lowerneck -15.7586 -1.69625 -2.29059
upperneck 9.95596 -2.31622 3.74665
head 5.64872 -0.939932 1.3391
rclavicle -5.71506e-015 -8.74653e-015
rhumerus -37.8123 -8.13002 -81.3164
rradius 31.8917
rwrist 6.84324
rhand -19.2709 -8.71315
rfingers 7.12502
rthumb 7.04361 -38.576
lclavicle -5.71506e-015 -8.74653e-015
lhumerus -35.5797 0.22212 90.4381
lradius 42.9424
lwrist -4.15386
lhand -16.2869 7.21577
lfingers 7.12502
lthumb 9.92333 36.9619
rfemur -17.816 0.767883 21.1963
rtibia 33.7954
rfoot -21.1752 -14.0051
rtoes -15.21
lfemur -20.9448 -5.02215 -23.9354
ltibia 38.808
lfoot -24.29 -3.94912
ltoes 10.3389
237
root 0.891308 17.7594 -15.906 -168.856 -4.26031 -182.357
lowerback 3.52605 -0.586134 -3.97263
upperback -3.88873 -1.04493 1.67845
thorax -5.93231 -0.344529 4.07831
lowerneck -15.7858 -1.68306 -2.24956
upperneck 9.94218 -2.29843 3.69166
head 5.64708 -0.933453 1.3166
rclavicle 1.59028e-014 -3.18055e-015
rhumerus -37.7642 -8.04394 -81.3598
rradius 32.1081
rwrist 6.77647
rhand -19.3544 -8.75727
rfingers 7.12502
rthumb 6.96306 -38.6228
lclavicle 1.59028e-014 -3.18055e-015
lhumerus -35.5448 -0.00879388 90.6065
lradius 43.2328
lwrist -4.01084
lhand -16.2508 7.10953
lfingers 7.12502
lthumb 9.95819 36.854
rfemur -17.8865 0.699886 21.1579
rtibia 33.7998
rfoot -21.2903 -13.8125
rtoes -15.5554
lfemur -21.0042 -5.02728 -23.9666
ltibia 38.8342
lfoot -24.3768 -3.75546
ltoes 10.2441
238
root 0.896504 17.756 -15.9326 -168.716 -4.11356 -182.372
lowerback 3.52547 -0.589435 -3.93988
upperback -3.89294 -1.04782 1.67668
thorax -5.93648 -0.347442 4.05824
lowerneck -15.7991 -1.66857 -2.21462
upperneck 9.91937 -2.27816 3.64102
head 5.64036 -0.925897 1.29677
rclavicle -9.39258e-015 -1.27222e-014
rhumerus -37.7195 -7.95335 -81.4068
rradius 32.332
rwrist 6.70967
rhand -19.4316 -8.78647
rfingers 7.12502
rthumb 6.88854 -38.6544
lclavicle -9.39258e-015 -1.27222e-014
lhumerus -35.5268 -0.231748 90.7751
lradius 43.5197
lwrist -3.86417
lhand -16.218 7.01233
lfingers 7.12502
lthumb 9.98982 36.7553
rfemur -17.9581 0.633513 21.1355
rtibia 33.803
rfoot -21.3999 -13.6279
rtoes -15.8787
lfemur -21.0698 -5.01578 -23.9834
ltibia 38.8676
lfoot -24.4682 -3.5791
ltoes 10.1475
239
root 0.901369 17.7526 -15.9596 -168.573 -3.97417 -182.373
lowerback 3.52759 -0.595609 -3.88883
upperback -3.89722 -1.05325 1.68143
thorax -5.9421 -0.352266 4.03496
lowerneck -15.8149 -1.65038 -2.17205
upperneck 9.89218 -2.25274 3.57881
head 5.63228 -0.916384 1.27253
rclavicle 9.19379e-015 -1.03368e-014
rhumerus -37.6708 -7.85161 -81.46
rradius 32.5639
rwrist 6.62961
rhand -19.4937 -8.80875
rfingers 7.12502
rthumb 6.82863 -38.6786
lclavicle 9.19379e-015 -1.03368e-014
lhumerus -35.5183 -0.445576 90.9446
lradius 43.8067
lwrist -3.71676
lhand -16.2003 6.93082
lfingers 7.12502
lthumb 10.0069 36.6729
rfemur -18.0321 0.58067 21.1308
rtibia 33.8037
rfoot -21.5025 -13.4627
rtoes -16.1589
lfemur -21.144 -4.98667 -23.9841
ltibia 38.9087
lfoot -24.5608 -3.42469
ltoes 10.0527
240
root 0.905833 17.7491 -15.9871 -168.431 -3.83837 -182.364
lowerback 3.53123 -0.603503 -3.82683
upperback -3.89892 -1.05995 1.69178
thorax -5.94578 -0.358143 4.01146
lowerneck -15.8318 -1.62966 -2.13832
upperneck 9.85958 -2.22274 3.52286
head 5.62276 -0.904548 1.25212
rclavicle -1.51076e-014 -1.11319e-014
rhumerus -37.6188 -7.73631 -81.5186
rradius 32.8035
rwrist 6.53365
rhand -19.5377 -8.8293
rfingers 7.12502
rthumb 6.78609 -38.7006
lclavicle -1.51076e-014 -1.11319e-014
lhumerus -35.5207 -0.648974 91.1174
lradius 44.0941
lwrist -3.57372
lhand -16.2001 6.85861
lfingers 7.12502
lthumb 10.0071 36.6007
rfemur -18.1013 0.543754 21.1366
rtibia 33.801
rfoot -21.6012 -13.3162
rtoes -16.3825
lfemur -21.2191 -4.9431 -23.9759
ltibia 38.9573
lfoot -24.6553 -3.28857
ltoes 9.94595
